# Created with Anim8or 1.00
# Object "ObeliskSet01G":

mtllib ObeliskSet01_G.mtl

# Shape "ObeliskSet01-G":
g ObeliskSet01-G
# No. points 64:
v 0.31300 -5.128 0.02940
v -0.34200 -4.933 -0.67667
v 0.72800 -4.62 -0.69037
v -0.63000 -4.981 0.20460
v -1.088 -4.536 -0.54468
v -0.60600 -3.979 -1.20837
v 0.24500 -4.161 -1.35167
v 1.301 -4.28 0.37510
v -0.03900 -4.851 1.1833
v 0.87100 -3.645 -0.75286
v 0.11300 -3.213 -1.37617
v -1.076 -3.566 -0.50096
v -0.66000 -2.792 -1.1161
v -1.301 -4.106 0.05230
v -0.88400 -3.948 0.89270
v 0.21200 -3.652 1.4273
v 1.297 -2.836 0.36330
v 0.94800 -2.384 -0.82621
v 0.08200 -1.948 -1.42737
v -1.077 -2.372 -0.47635
v -0.69600 -1.53 -1.11714
v -1.253 -3.168 0.16450
v -0.73800 -2.786 0.83800
v 0.21000 -2.34 1.3896
v 1.26 -1.527 0.34430
v 0.91900 -1.088 -0.83591
v 0.02100 -0.65600 -1.33807
v -1.131 -1.105 -0.45525
v -0.76400 -0.23200 -1.1094
v -1.229 -1.944 0.16100
v -0.71200 -1.518 0.80390
v 0.18600 -1.053 1.3391
v 1.236 -0.22600 0.31590
v 0.83800 0.21700 -0.77545
v -0.04200 0.62400 -1.2293
v -1.106 0.07100 -0.35391
v -0.84500 1.108 -0.82494
v -1.189 -0.71300 0.18650
v -0.67100 -0.28100 0.75030
v 0.13800 0.24100 1.292
v 1.147 1.08 0.25420
v 0.72800 1.6402 -0.57437
v -0.05000 1.5803 -1.11946
v -1.132 1.6932 0.06860
v -0.42900 2.2404 -0.63105
v -1.083 0.84700 -0.05544
v -1.147 0.20300 0.28120
v -0.69500 0.87100 0.61290
v -0.12400 1.756 1.1623
v 1.019 2.1846 0.46050
v 0.96100 3.1684 -0.07965
v 0.39600 2.4362 -0.87507
v -0.91700 3.1334 -0.01157
v 0.17100 3.4353 -0.81338
v 0.16400 3.2311 1.0452
v 0.27400 4.3938 0.57090
v 0.57100 4.4447 -0.02434
v -0.10400 4.4667 -0.32267
v -0.33000 4.3929 0.34090
v 0.30200 4.997 0.29160
v -0.00800 4.8932 0.36810
v 0.20700 4.9915 -0.03941
v -0.10800 4.8948 0.07200
v 0.08900 5.127 0.18090

# No. normals 222:
vn 0.24361 -0.85300 -0.46157
vn -0.17298 -0.97878 -0.10984
vn -0.48785 -0.84836 -0.20564
vn -0.41231 -0.52792 -0.74249
vn 0.20453 -0.72782 -0.65455
vn -0.24913 -0.52317 -0.81500
vn 0.53736 -0.76807 0.34830
vn -0.11482 -0.97333 0.19862
vn 0.67136 -0.72997 -0.12811
vn 0.88981 -0.15795 -0.42813
vn 0.74546 -0.15095 -0.64924
vn 0.65772 0.07220 -0.74980
vn -0.17622 -0.04994 -0.98308
vn -0.82264 0.03575 -0.56743
vn -0.83146 0.00536 -0.55555
vn -0.28819 0.06117 -0.95562
vn -0.93506 0.02750 -0.35343
vn -0.79738 -0.58736 0.13857
vn -0.70831 -0.50364 0.49462
vn -0.74152 -0.48861 0.45980
vn 0.58010 -0.27730 0.76589
vn -0.41499 -0.09722 0.90462
vn 0.69715 0.00779 0.71688
vn 0.93434 -0.00032 -0.35637
vn 0.94864 -0.07579 -0.30713
vn 0.60431 -0.08299 -0.79241
vn 0.56345 -0.01962 -0.82591
vn -0.34113 -0.04636 -0.93887
vn -0.83448 0.01066 -0.55093
vn -0.84479 -0.02454 -0.53454
vn -0.37568 -0.01148 -0.92668
vn -0.96571 0.00454 -0.25958
vn -0.94915 0.08484 -0.30319
vn -0.89520 -0.00749 0.44560
vn -0.45774 0.09910 0.88355
vn -0.82174 0.12937 0.55498
vn 0.69159 0.02180 0.72196
vn -0.51115 0.02391 0.85916
vn 0.69342 0.03005 0.71991
vn 0.96164 0.02321 -0.27332
vn 0.96243 0.01951 -0.27082
vn 0.57250 0.00667 -0.81988
vn 0.51660 0.08329 -0.85217
vn -0.34745 0.04832 -0.93645
vn -0.84324 -0.02700 -0.53685
vn -0.84691 -0.04121 -0.53014
vn -0.28423 -0.00917 -0.95871
vn -0.97750 -0.03821 -0.20747
vn -0.96971 0.01832 -0.24357
vn -0.79899 0.01739 0.60110
vn -0.51439 0.03359 0.85690
vn -0.78933 0.03267 0.61310
vn 0.68870 0.04125 0.72387
vn -0.52087 0.02377 0.85330
vn 0.68601 0.02852 0.72703
vn 0.96180 0.01177 -0.27351
vn 0.94616 0.07334 -0.31529
vn 0.51279 0.07147 -0.85553
vn 0.49151 0.09773 -0.86537
vn -0.24385 0.07019 -0.96727
vn -0.90090 0.05624 -0.43038
vn -0.90505 0.03527 -0.42385
vn -0.35771 0.17318 -0.91764
vn -0.99364 0.03047 -0.10841
vn -0.99323 0.03457 -0.11088
vn -0.78327 0.01258 0.62155
vn -0.53179 0.05425 0.84514
vn -0.75536 0.05334 0.65313
vn 0.67573 0.05183 0.73532
vn -0.56052 0.00935 0.82809
vn 0.68120 0.08080 0.72762
vn 0.94459 0.04904 -0.32458
vn 0.91680 0.12447 -0.37946
vn 0.50960 0.15886 -0.84562
vn 0.56589 0.09875 -0.81854
vn -0.39801 0.10139 -0.91176
vn -0.78407 0.37298 -0.49611
vn -0.95419 -0.01142 -0.29900
vn -0.95899 0.12606 -0.25385
vn -0.49002 0.31892 -0.81128
vn -0.99533 0.05892 -0.07650
vn -0.99572 0.05345 -0.07539
vn -0.72098 -0.03847 0.69189
vn -0.59103 0.08338 0.80233
vn -0.65998 0.07540 0.74749
vn 0.63206 0.17395 0.75515
vn -0.65277 -0.04817 0.75602
vn 0.54591 -0.09227 0.83275
vn 0.92103 0.17200 -0.34947
vn 0.96938 -0.07178 -0.23483
vn 0.77350 0.08537 -0.62802
vn 0.57598 -0.06752 -0.81467
vn -0.34767 0.42046 -0.83805
vn -0.73097 0.07134 -0.67867
vn -0.61624 0.19292 -0.76356
vn -0.28266 -0.00443 -0.95921
vn -0.73159 0.14628 0.66587
vn -0.73578 0.05574 0.67492
vn -0.85632 -0.12311 0.50155
vn -0.82280 0.32535 0.46599
vn 0.53291 -0.03694 0.84537
vn -0.69498 0.19072 0.69328
vn 0.77680 0.33765 0.53157
vn 0.81024 0.15403 0.56550
vn 0.85948 0.24315 0.44964
vn 0.70294 0.24375 -0.66818
vn 0.70222 0.20033 -0.68320
vn 0.36813 0.47767 -0.79769
vn -0.61653 0.19815 -0.76199
vn -0.69914 0.12904 0.70324
vn -0.85286 0.46432 -0.23883
vn -0.32920 0.38319 0.86301
vn 0.87619 0.16843 0.45158
vn -0.35056 0.17561 0.91993
vn 0.08439 0.41545 0.90569
vn 0.81083 0.53311 -0.24157
vn 0.39888 0.24115 -0.88473
vn -0.42400 0.61173 -0.66784
vn -0.92357 0.25519 -0.28617
vn -0.81458 0.50917 0.27785
vn -0.01923 0.62975 0.77656
vn -0.79298 0.54578 0.27075
vn 0.57874 0.79555 -0.17932
vn -0.42271 0.65323 -0.62817
vn 0.26107 -0.96471 -0.03421
vn -0.16072 -0.81984 -0.54958
vn 0.61844 -0.58812 -0.52120
vn -0.55869 -0.80952 0.18041
vn -0.80236 -0.44130 -0.40183
vn -0.50702 -0.18216 -0.84247
vn -0.07929 -0.46711 -0.88064
vn 0.70759 -0.03971 -0.70550
vn 0.89620 -0.40044 0.19098
vn 0.38438 -0.77391 0.50330
vn -0.59363 -0.31753 0.73945
vn 0.82240 -0.06809 -0.56482
vn 0.61049 -0.01017 -0.79196
vn -0.26956 -0.01176 -0.96291
vn -0.89934 0.02841 -0.43634
vn -0.61888 -0.00091 -0.78548
vn -0.97192 -0.21857 0.08718
vn -0.72455 -0.15577 0.67139
vn 0.66375 -0.08351 0.74328
vn -0.46325 0.00864 0.88618
vn 0.69409 0.01988 0.71962
vn 0.94967 -0.01766 -0.31276
vn 0.81398 -0.02276 -0.58044
vn 0.55160 0.02348 -0.83378
vn -0.35507 -0.00318 -0.93483
vn -0.91889 -0.00951 -0.39439
vn -0.62504 -0.01148 -0.78051
vn -0.98832 0.04520 0.14555
vn -0.66422 0.05733 0.74533
vn 0.69126 0.03103 0.72194
vn -0.51548 0.02709 0.85647
vn 0.68939 0.03327 0.72362
vn 0.96197 0.01816 -0.27256
vn 0.79627 0.04737 -0.60308
vn 0.11765 0.06596 -0.99086
vn -0.94493 0.00253 -0.32728
vn -0.64097 0.05153 -0.76583
vn -0.97233 0.01415 0.23317
vn -0.65879 0.03555 0.75149
vn 0.68353 0.04054 0.72880
vn -0.53792 0.02913 0.84249
vn 0.68115 0.05373 0.73017
vn 0.95142 0.04474 -0.30464
vn 0.76556 0.10185 -0.63525
vn 0.10504 0.12960 -0.98599
vn -0.97102 0.06087 -0.23110
vn -0.75102 0.17294 -0.63723
vn -0.95239 0.02651 0.30374
vn -0.64096 0.03981 0.76654
vn 0.66410 0.10236 0.74060
vn -0.60303 0.01489 0.79758
vn 0.62515 0.05464 0.77859
vn 0.92897 0.11536 -0.35173
vn 0.78703 0.07523 -0.61231
vn 0.57293 0.01567 -0.81946
vn -0.41672 0.28354 -0.86368
vn -0.84911 0.14886 -0.50680
vn -0.78332 0.02660 0.62105
vn -0.56492 0.23840 -0.78995
vn -0.99398 0.08142 0.07327
vn -0.91765 0.10384 0.38359
vn -0.73659 0.06287 0.67342
vn 0.57511 0.01504 0.81794
vn -0.70759 0.08661 0.70130
vn 0.64141 0.07205 0.76380
vn 0.95418 0.05058 -0.29492
vn 0.81221 0.11808 -0.57128
vn 0.81926 0.24607 0.51794
vn 0.69255 0.07365 -0.71760
vn -0.32333 0.21340 -0.92191
vn -0.73312 0.24121 -0.63589
vn -0.70899 0.15544 0.68787
vn -0.51616 0.13169 -0.84631
vn 0.60424 0.31408 -0.73229
vn 0.72825 0.15622 0.66727
vn -0.58869 0.24013 0.77187
vn 0.85087 0.18903 0.49019
vn -0.20382 0.33353 0.92044
vn 0.86847 0.20594 0.45094
vn 0.50088 0.32800 -0.80096
vn 0.81083 0.53311 -0.24157
vn 0.38663 0.36234 -0.84807
vn -0.75031 0.40736 -0.52068
vn -0.47142 0.23516 0.84998
vn -0.90022 0.42689 -0.08587
vn 0.87619 0.16843 0.45158
vn 0.70605 0.67510 -0.21386
vn 0.03288 0.52746 0.84894
vn -0.09881 0.42265 0.90089
vn -0.80397 0.52760 0.27437
vn 0.70605 0.67510 -0.21386
vn -0.42353 0.63274 -0.64828
vn 0.39888 0.24115 -0.88473
vn -0.77271 0.58908 -0.23644
vn -0.01923 0.62975 0.77656
vn -0.42271 0.65323 -0.62817
vn 0.57874 0.79555 -0.17932
vn -0.79298 0.54578 0.27075

# No. texture coordinates 131:
vt 0.92937 0.20891
vt 0.93956 0.21755
vt 0.94058 0.20588
vt 0.93868 0.37488
vt 0.94084 0.36331
vt 0.93033 0.36683
vt 0.93391 0.35617
vt 0.26111 0.83000
vt 0.25440 0.82081
vt 0.25165 0.83178
vt 0.92558 0.21944
vt 0.26307 0.81633
vt 0.89432 0.12957
vt 0.89764 0.11017
vt 0.88426 0.11920
vt 0.92464 0.37887
vt 0.88301 0.10793
vt 0.52715 0.13115
vt 0.52041 0.14552
vt 0.53201 0.14531
vt 0.52701 0.15539
vt 0.51568 0.15711
vt 0.25488 0.80839
vt 0.24405 0.82296
vt 0.24438 0.81064
vt 0.91108 0.60018
vt 0.90224 0.59783
vt 0.90648 0.60866
vt 0.41222 0.06838
vt 0.40412 0.07893
vt 0.41555 0.07653
vt 0.39110 0.07468
vt 0.40174 0.06394
vt 0.25199 0.18190
vt 0.23613 0.17031
vt 0.23995 0.18940
vt 0.88167 0.24983
vt 0.89631 0.25091
vt 0.88952 0.23764
vt 0.25088 0.16126
vt 0.50988 0.13216
vt 0.50539 0.14646
vt 0.50059 0.15858
vt 0.24516 0.79677
vt 0.23473 0.81210
vt 0.23440 0.79927
vt 0.91584 0.61046
vt 0.91144 0.62207
vt 0.41327 0.05825
vt 0.88520 0.26341
vt 0.87464 0.26096
vt 0.26527 0.17347
vt 0.89896 0.26639
vt 0.26436 0.15324
vt 0.49425 0.13339
vt 0.48990 0.14753
vt 0.48507 0.15891
vt 0.23430 0.78566
vt 0.22446 0.80090
vt 0.22384 0.78782
vt 0.92053 0.62435
vt 0.91680 0.63621
vt 0.87758 0.27531
vt 0.88802 0.27834
vt 0.27834 0.16527
vt 0.90125 0.28162
vt 0.27767 0.14510
vt 0.47870 0.13461
vt 0.47424 0.14828
vt 0.46966 0.15905
vt 0.22341 0.77475
vt 0.91198 0.64907
vt 0.92244 0.64918
vt 0.92058 0.66304
vt 0.21148 0.77720
vt 0.92552 0.63825
vt 0.88089 0.28966
vt 0.89078 0.29293
vt 0.29162 0.15721
vt 0.90336 0.29697
vt 0.29121 0.13716
vt 0.46313 0.13661
vt 0.45705 0.14794
vt 0.45814 0.15861
vt 0.21544 0.76647
vt 0.20499 0.76487
vt 0.20029 0.77733
vt 0.93350 0.66596
vt 0.92868 0.65693
vt 0.93002 0.64834
vt 0.88403 0.30016
vt 0.89212 0.30677
vt 0.30785 0.14871
vt 0.90341 0.31533
vt 0.30394 0.13270
vt 0.44975 0.13614
vt 0.43840 0.14241
vt 0.44774 0.15365
vt 0.21106 0.75668
vt 0.19126 0.76237
vt 0.20133 0.74923
vt 0.89054 0.33492
vt 0.88594 0.31809
vt 0.88357 0.30837
vt 0.32109 0.13660
vt 0.90847 0.33257
vt 0.31212 0.12306
vt 0.33055 0.12511
vt 0.32726 0.11832
vt 0.43573 0.15521
vt 0.42307 0.14534
vt 0.41825 0.10603
vt 0.41703 0.09004
vt 0.40966 0.09494
vt 0.18881 0.74355
vt 0.90134 0.34828
vt 0.79154 0.11283
vt 0.78741 0.13143
vt 0.79562 0.12951
vt 0.90857 0.34711
vt 0.33547 0.11912
vt 0.90560 0.35372
vt 0.33620 0.12256
vt 0.41128 0.08433
vt 0.40986 0.08696
vt 0.79058 0.13874
vt 0.79244 0.13606
vt 0.79573 0.13659
vt 0.33737 0.11904
vt 0.79353 0.13960
vt 0.40815 0.08489

# No. faces 124:

usemtl ObeliskSet_Base01

f 1/3/125 2/2/126 3/1/127
f 4/6/128 2/5/126 1/4/125
f 5/7/129 2/5/126 4/6/128
f 5/10/129 6/9/130 2/8/126
f 2/2/126 7/11/131 3/1/127
f 7/12/131 2/8/126 6/9/130
f 1/15/125 8/14/133 9/13/134
f 4/6/128 1/4/125 9/16/134
f 8/14/133 1/15/125 3/17/127
f 3/20/127 10/19/136 8/18/133
f 10/19/136 3/20/127 7/21/132
f 11/22/137 10/19/136 7/21/132
f 11/23/138 7/12/131 6/9/130
f 5/10/129 12/24/139 6/9/130
f 6/9/130 12/24/139 13/25/140
f 13/25/140 11/23/138 6/9/130
f 12/28/139 5/27/129 14/26/141
f 5/31/129 4/30/128 14/29/141
f 15/33/142 4/30/128 9/32/135
f 4/30/128 15/33/142 14/29/141
f 9/36/134 8/35/133 16/34/143
f 9/39/135 16/38/144 15/37/142
f 8/35/133 17/40/145 16/34/143
f 8/18/133 10/19/136 17/41/146
f 10/19/136 18/42/147 17/41/146
f 18/42/147 10/19/136 11/22/137
f 19/43/148 18/42/147 11/22/137
f 19/44/149 11/23/138 13/25/140
f 12/24/139 20/45/150 13/25/140
f 13/25/140 20/45/150 21/46/151
f 21/46/151 19/44/149 13/25/140
f 20/48/150 12/28/139 22/47/152
f 22/47/152 12/28/139 14/26/141
f 14/29/141 15/33/142 22/49/152
f 16/38/144 23/50/153 15/37/142
f 15/37/142 23/50/153 22/51/152
f 16/34/143 17/40/145 24/52/154
f 16/38/144 24/53/155 23/50/153
f 17/40/145 25/54/156 24/52/154
f 17/41/146 18/42/147 25/55/157
f 18/42/147 26/56/158 25/55/157
f 26/56/158 18/42/147 19/43/148
f 27/57/159 26/56/158 19/43/148
f 27/58/159 19/44/149 21/46/151
f 20/45/150 28/59/160 21/46/151
f 21/46/151 28/59/160 29/60/161
f 29/60/161 27/58/159 21/46/151
f 28/62/160 20/48/150 30/61/162
f 30/61/162 20/48/150 22/47/152
f 22/51/152 23/50/153 30/63/162
f 24/53/155 31/64/163 23/50/153
f 23/50/153 31/64/163 30/63/162
f 24/52/154 25/54/156 32/65/164
f 24/53/155 32/66/165 31/64/163
f 25/54/156 33/67/166 32/65/164
f 25/55/157 26/56/158 33/68/167
f 26/56/158 34/69/168 33/68/167
f 34/69/168 26/56/158 27/57/159
f 35/70/169 34/69/168 27/57/159
f 35/71/169 27/58/159 29/60/161
f 28/62/160 36/73/170 29/72/161
f 29/72/161 36/73/170 37/74/171
f 37/75/171 35/71/169 29/60/161
f 36/73/170 28/62/160 38/76/172
f 38/76/172 28/62/160 30/61/162
f 30/63/162 31/64/163 38/77/172
f 32/66/165 39/78/173 31/64/163
f 31/64/163 39/78/173 38/77/172
f 32/65/164 33/67/166 40/79/174
f 32/66/165 40/80/175 39/78/173
f 33/67/166 41/81/176 40/79/174
f 33/68/167 34/69/168 41/82/177
f 34/69/168 42/83/178 41/82/177
f 42/83/178 34/69/168 35/70/169
f 43/84/179 42/83/178 35/70/169
f 43/85/180 35/71/169 37/75/171
f 44/87/181 45/86/183 37/75/171
f 46/89/184 44/88/181 37/74/171
f 46/89/184 37/74/171 36/73/170
f 45/86/183 43/85/180 37/75/171
f 36/73/170 47/90/185 46/89/184
f 47/90/185 36/73/170 38/76/172
f 38/77/172 39/78/173 47/91/185
f 40/80/175 48/92/186 39/78/173
f 39/78/173 48/92/186 47/91/185
f 40/79/174 41/81/176 49/93/187
f 49/94/188 48/92/186 40/80/175
f 41/81/176 50/95/189 49/93/187
f 41/82/177 42/83/178 50/96/190
f 42/83/178 51/97/191 50/96/190
f 52/98/193 51/97/191 42/83/178
f 42/83/178 43/84/179 52/98/193
f 43/85/180 45/86/183 52/99/194
f 53/100/195 45/86/183 44/87/181
f 54/101/197 45/86/183 53/100/195
f 54/101/197 52/99/194 45/86/183
f 44/103/182 49/94/188 53/102/196
f 44/103/182 48/92/186 49/94/188
f 44/103/182 46/104/184 48/92/186
f 47/91/185 48/92/186 46/104/184
f 49/93/187 50/95/189 55/105/199
f 49/94/188 55/106/200 53/102/196
f 50/95/189 51/107/192 55/105/199
f 55/105/199 51/107/192 56/108/201
f 51/107/192 57/109/203 56/108/201
f 57/111/204 51/97/191 54/110/198
f 52/98/193 54/110/198 51/97/191
f 58/114/206 57/113/204 54/112/198
f 58/115/207 54/101/197 53/100/195
f 53/102/196 55/106/200 59/116/208
f 59/119/209 58/118/207 53/117/195
f 55/106/200 56/120/202 59/116/208
f 56/108/201 57/109/203 60/121/210
f 59/116/208 56/120/202 61/122/213
f 56/108/202 60/121/212 61/123/213
f 57/113/205 62/125/215 60/124/211
f 62/125/217 57/113/204 58/114/206
f 63/127/218 62/126/216 58/118/207
f 63/127/218 58/118/207 59/119/209
f 61/128/214 63/127/218 59/119/209
f 61/123/213 60/121/212 64/129/219
f 63/127/218 61/128/214 64/130/222
f 62/125/215 64/131/221 60/124/211
f 62/126/216 63/127/218 64/130/220

# End of Object "ObeliskSet01G"
