# Created with Anim8or 1.00
# Object "ObeliskSet01F":

mtllib ObeliskSet01_F.mtl

# Shape "ObeliskSet01-F":
g ObeliskSet01-F
# No. points 74:
v -0.62300 -5.186 -0.39433
v 0.49600 -5.201 0.06880
v -0.46100 -5.105 0.68970
v 0.29300 -5.083 -0.95601
v -1.289 -4.215 -1.00452
v -1.46 -4.417 0.05020
v -0.25800 -4.404 -1.52691
v 1.483 -4.185 0.54320
v 0.38300 -4.857 1.3362
v 1.212 -4.698 -0.58986
v -0.77300 -4.107 1.38
v -1.447 -3.18 0.38530
v -1.373 -3.2 -0.73058
v -0.55800 -3.2 -1.46501
v 0.48100 -3.266 -1.41438
v 0.73900 -4.245 -1.39028
v 1.288 -3.632 -0.65743
v 0.59300 -3.645 1.5273
v 1.499 -2.849 0.52050
v -0.68100 -2.811 1.3603
v -1.488 -1.899 0.42930
v -1.404 -1.953 -0.67703
v -0.58100 -1.948 -1.44721
v 0.42000 -2.011 -1.41643
v 1.266 -2.375 -0.68216
v 0.60200 -2.338 1.4989
v 1.471 -1.554 0.49850
v -0.69700 -1.527 1.3765
v -1.498 -0.59700 0.44840
v -1.389 -0.66800 -0.66091
v -0.59100 -0.67200 -1.40942
v 0.40100 -0.73300 -1.38845
v 1.242 -1.092 -0.67054
v 0.59000 -1.053 1.4761
v 1.438 -0.27000 0.48370
v -0.68100 -0.22300 1.3718
v -1.437 0.80600 0.51590
v -1.364 0.63200 -0.62040
v -0.58700 0.60400 -1.36937
v 0.38100 0.53700 -1.34705
v 1.202 0.19000 -0.64981
v 0.58300 0.24000 1.4628
v 1.407 1.014 0.47180
v -0.60500 1.1397 1.3552
v -1.326 2.1805 0.62060
v -1.346 1.9463 -0.49334
v -0.63500 1.8507 -1.28338
v 0.37200 1.7443 -1.292
v 1.159 1.4474 -0.61554
v 0.60200 1.627 1.436
v 1.358 2.2536 0.47700
v -0.48500 2.526 1.3463
v -1.108 3.4905 0.68460
v -1.304 3.2034 -0.27473
v -0.74800 3.0634 -1.1497
v 0.29000 2.9302 -1.24843
v 1.102 2.6788 -0.59210
v 0.63400 3.0136 1.3748
v 1.288 3.5447 0.43340
v -0.31100 3.912 1.2958
v -0.88900 3.9881 -0.05886
v -0.73900 3.9895 -0.72448
v 0.03900 4.0561 -1.23338
v 0.96100 3.8773 -0.65543
v 0.71100 4.3935 1.15
v 1.161 4.8313 0.18048
v -0.62000 4.4852 -0.33832
v -0.25400 4.5718 -0.76158
v 0.47000 4.8523 -0.68178
v 0.54500 4.8304 0.59990
v 0.23900 5.2003 0.20010
v -0.28500 5.0157 -0.38815
v 0.05700 4.7359 0.82330
v -0.66300 4.6508 0.37160

# No. normals 234:
vn -0.04704 -0.99557 0.08142
vn 0.03701 -0.99190 -0.12154
vn -0.72294 -0.64744 -0.24121
vn -0.62429 -0.76654 0.15057
vn -0.28764 -0.74228 -0.60521
vn -0.42878 -0.67290 -0.60279
vn 0.63131 -0.73239 0.25507
vn 0.07725 -0.96044 0.26757
vn 0.66616 -0.72629 0.16950
vn 0.44244 -0.87675 -0.18859
vn -0.36509 -0.60410 0.70836
vn -0.68487 -0.54705 0.48134
vn -0.87029 -0.12024 0.47764
vn -0.99737 0.02854 -0.06665
vn -0.98532 -0.03654 -0.16675
vn -0.66250 0.14359 -0.73517
vn -0.46098 -0.06938 -0.88470
vn 0.05265 0.06435 -0.99654
vn 0.13405 0.01093 -0.99091
vn 0.19767 -0.53191 -0.82341
vn 0.49992 -0.59312 -0.63110
vn 0.97706 -0.08212 -0.19651
vn 0.83291 -0.09395 -0.54537
vn 0.65701 -0.22718 0.71884
vn 0.74236 0.00249 0.67000
vn 0.98587 -0.01464 -0.16686
vn -0.05718 -0.14582 0.98766
vn -0.11495 0.02326 0.99310
vn -0.79657 0.06568 0.60096
vn -0.77688 -0.04643 0.62793
vn -0.99681 -0.02935 -0.07425
vn -0.99759 -0.02198 -0.06576
vn -0.68326 0.01436 -0.73003
vn -0.66943 -0.00174 -0.74287
vn 0.03166 0.01479 -0.999389
vn 0.04872 0.00074 -0.99881
vn 0.66273 0.03099 -0.74821
vn 0.68355 -0.00240 -0.72990
vn 0.71425 0.17153 -0.67854
vn 0.98264 0.01356 -0.18503
vn 0.73955 0.00953 0.67304
vn 0.74392 0.02743 0.66770
vn 0.98289 0.01814 -0.18327
vn -0.11553 0.02237 0.99305
vn -0.10235 -0.01382 0.99465
vn -0.76401 -0.01766 0.64496
vn -0.76450 -0.01532 0.64445
vn -0.99523 -0.00621 -0.09739
vn -0.99700 0.01260 -0.07631
vn -0.68398 0.01713 -0.72930
vn -0.68325 0.01627 -0.73000
vn 0.02296 0.02977 -0.999293
vn 0.03213 0.02235 -0.999234
vn 0.65549 0.02627 -0.75474
vn 0.66004 0.01915 -0.75098
vn 0.98262 0.02005 -0.18456
vn 0.74749 0.01876 0.66401
vn 0.74940 0.02688 0.66157
vn 0.98277 0.02314 -0.18337
vn -0.08333 0.01690 0.99638
vn -0.07883 0.00456 0.99688
vn -0.75121 0.01160 0.65996
vn -0.74908 0.00070 0.66248
vn -0.99637 0.04674 -0.07117
vn -0.99482 0.02222 -0.09917
vn -0.69289 0.03576 -0.72016
vn -0.68385 0.02503 -0.72920
vn 0.02520 0.03128 -0.999193
vn 0.02315 0.03294 -0.999189
vn 0.65546 0.03492 -0.75443
vn 0.65694 0.03268 -0.75324
vn 0.98109 0.03369 -0.19059
vn 0.75597 0.01083 0.65451
vn 0.75926 0.02436 0.65033
vn 0.98051 0.02186 -0.19527
vn -0.07539 0.00985 0.99711
vn -0.07780 0.01648 0.99683
vn -0.71893 0.04854 0.69338
vn -0.71095 0.00385 0.70323
vn -0.99676 0.08042 0.00099
vn -0.99754 0.02016 -0.06717
vn -0.73668 0.07506 -0.67206
vn -0.69339 0.02298 -0.72020
vn -0.00127 0.06876 -0.99763
vn 0.02619 0.04573 -0.99861
vn 0.65979 0.03914 -0.75043
vn 0.65721 0.04298 -0.75248
vn 0.97748 0.03908 -0.20737
vn 0.76821 0.00185 0.64020
vn 0.77603 0.02803 0.63008
vn 0.97750 0.03951 -0.20720
vn -0.07493 0.02029 0.99698
vn -0.07186 0.01262 0.99733
vn -0.66661 0.06247 0.74278
vn -0.66898 0.07520 0.73947
vn -0.97600 0.15494 0.15304
vn -0.999442 0.03142 0.01134
vn -0.82864 0.12267 -0.54618
vn -0.74303 0.00454 -0.66924
vn -0.08125 0.10172 -0.99149
vn -0.00471 0.03639 -0.999327
vn 0.64043 0.07237 -0.76460
vn 0.66086 0.04485 -0.74917
vn 0.97559 0.04924 -0.21403
vn 0.78228 0.00944 0.62285
vn 0.80245 0.06354 0.59332
vn 0.97545 0.04561 -0.21544
vn -0.04506 0.04509 0.99797
vn -0.04366 0.04185 0.99817
vn -0.64034 0.10810 0.76045
vn -0.68160 0.42256 0.59739
vn -0.93666 0.34755 -0.04330
vn -0.88812 0.45744 0.04455
vn -0.84548 0.49927 -0.18948
vn -0.79592 0.25898 -0.54721
vn -0.53248 0.35746 -0.76726
vn -0.09571 -0.00803 -0.99538
vn 0.54476 0.13251 -0.82806
vn 0.63458 0.03386 -0.77212
vn 0.96096 0.09941 -0.25823
vn 0.80650 0.05096 0.58903
vn 0.85903 0.17907 0.47958
vn 0.96030 0.04053 -0.27602
vn 0.06670 0.15681 0.98537
vn -0.13446 0.53748 0.83249
vn -0.47864 0.58782 0.65220
vn -0.90232 0.40450 -0.14901
vn -0.90441 0.37527 -0.20302
vn -0.68746 0.54178 -0.48361
vn -0.52705 0.39091 -0.75459
vn -0.15435 0.61775 -0.77108
vn 0.54858 0.25474 -0.79634
vn 0.73401 0.35397 -0.57960
vn 0.34991 0.78213 0.51559
vn 0.33278 0.80541 0.49048
vn 0.35381 0.89797 -0.26167
vn 0.11865 0.79467 0.59534
vn -0.72988 0.40949 -0.54735
vn -0.15980 0.62892 -0.76087
vn 0.06546 0.93394 -0.35139
vn 0.13211 0.77595 0.61681
vn -0.84025 0.51455 -0.17092
vn -0.48949 0.85577 0.16748
vn -0.39063 0.78915 0.47398
vn -0.38315 -0.88995 -0.24736
vn 0.32253 -0.94294 0.08271
vn -0.36256 -0.85426 0.37253
vn 0.19709 -0.82787 -0.52515
vn -0.74418 -0.29275 -0.60041
vn -0.91294 -0.39045 0.11866
vn -0.14870 -0.36399 -0.91946
vn 0.73685 -0.45994 0.49548
vn 0.98214 -0.04841 -0.18181
vn 0.23119 -0.65438 0.71996
vn 0.77912 -0.54066 -0.31727
vn -0.54436 -0.25028 0.80064
vn -0.96374 -0.02195 0.26593
vn -0.89352 0.02258 -0.44846
vn -0.29584 0.02715 -0.95485
vn 0.40716 0.04897 -0.91204
vn 0.52932 -0.23064 -0.81647
vn 0.90032 -0.00140 -0.43522
vn 0.71807 -0.07223 0.69221
vn -0.09623 -0.03352 0.99479
vn 0.74198 0.01315 0.67029
vn 0.98394 0.00569 -0.17841
vn -0.48194 0.00603 0.87618
vn -0.95355 -0.01844 0.30066
vn -0.90253 0.00162 -0.43063
vn -0.35090 0.01725 -0.93626
vn 0.36982 0.02022 -0.92888
vn 0.87181 0.01751 -0.48953
vn 0.74368 0.01857 0.66828
vn -0.10043 0.00849 0.99491
vn 0.74695 0.02436 0.66444
vn 0.98276 0.02044 -0.18373
vn -0.45807 -0.00248 0.88891
vn -0.75502 -0.00101 0.65570
vn -0.99579 0.02092 -0.08927
vn -0.89936 0.01898 -0.43679
vn -0.35650 0.02745 -0.93389
vn 0.36234 0.03169 -0.93151
vn 0.86741 0.02733 -0.49684
vn 0.75098 0.01882 0.66006
vn -0.07919 0.01044 0.99681
vn 0.75491 0.02069 0.65550
vn 0.98148 0.02623 -0.18975
vn -0.43967 0.01645 0.89801
vn -0.93671 0.03631 0.34821
vn -0.90788 0.03959 -0.41737
vn -0.36392 0.04135 -0.93051
vn 0.36271 0.04022 -0.93103
vn 0.86398 0.03612 -0.50222
vn 0.76120 0.01235 0.64840
vn -0.07604 0.01554 0.99698
vn 0.76793 0.01808 0.64028
vn 0.97855 0.03349 -0.20329
vn -0.41201 0.02916 0.91071
vn -0.90313 0.07347 0.42304
vn -0.93734 0.05909 -0.34338
vn -0.40790 0.05584 -0.91132
vn 0.35198 0.05458 -0.93441
vn 0.86158 0.04472 -0.50565
vn 0.77559 0.01311 0.63111
vn -0.06396 0.02601 0.99761
vn 0.78727 0.03369 0.61569
vn 0.97619 0.04479 -0.21222
vn -0.37709 0.06095 0.92417
vn -0.86790 0.28360 0.40782
vn -0.94396 0.26985 -0.19007
vn -0.55652 0.15144 -0.81692
vn 0.29209 0.06577 -0.95413
vn 0.85085 0.06061 -0.52190
vn 0.79743 0.04133 0.60200
vn -0.00736 0.08148 0.99665
vn 0.82546 0.09819 0.55586
vn 0.96625 0.06189 -0.25007
vn -0.34686 0.33645 0.87550
vn -0.90121 0.41951 -0.10875
vn -0.74755 0.42206 -0.51287
vn -0.04144 0.33448 -0.94149
vn 0.77038 0.16082 -0.61697
vn 0.83603 0.11546 0.53640
vn 0.10752 0.60923 0.78567
vn 0.85903 0.17907 0.47958
vn 0.68779 0.72537 -0.02801
vn -0.83004 0.45861 -0.31735
vn -0.47290 0.54207 -0.69464
vn 0.26263 0.69784 -0.66636
vn 0.23509 0.79538 0.55866
vn 0.00078 0.97571 0.21907
vn -0.49972 0.77551 -0.38583
vn -0.15781 0.73040 0.66454
vn -0.74633 0.62018 0.24160

# No. texture coordinates 165:
vt 0.42148 0.08526
vt 0.43349 0.07732
vt 0.43339 0.09087
vt 0.42209 0.07235
vt 0.44567 0.08663
vt 0.43222 0.06537
vt 0.94920 0.33727
vt 0.95695 0.32341
vt 0.96172 0.33658
vt 0.94030 0.32652
vt 0.94685 0.31590
vt 0.88101 0.44754
vt 0.88999 0.43893
vt 0.89349 0.45485
vt 0.90481 0.44045
vt 0.89480 0.42751
vt 0.35129 0.90650
vt 0.33768 0.91815
vt 0.33688 0.90004
vt 0.35287 0.91952
vt 0.63896 0.09788
vt 0.64570 0.11432
vt 0.62847 0.10869
vt 0.63310 0.12345
vt 0.61579 0.11730
vt 0.62035 0.13205
vt 0.60291 0.12607
vt 0.60743 0.14084
vt 0.58957 0.13635
vt 0.59412 0.15034
vt 0.57691 0.14705
vt 0.58079 0.16034
vt 0.56514 0.15775
vt 0.56748 0.17041
vt 0.55383 0.16621
vt 0.77839 0.94103
vt 0.78251 0.92629
vt 0.79388 0.93339
vt 0.79065 0.94541
vt 0.78978 0.91294
vt 0.80086 0.92031
vt 0.79747 0.89952
vt 0.80853 0.90706
vt 0.80541 0.88471
vt 0.81605 0.89350
vt 0.81290 0.86993
vt 0.82278 0.87926
vt 0.82059 0.85599
vt 0.82826 0.86502
vt 0.83730 0.87153
vt 0.83161 0.84578
vt 0.83157 0.85539
vt 0.83862 0.85941
vt 0.83791 0.85186
vt 0.84223 0.84653
vt 0.68461 0.86892
vt 0.67329 0.86222
vt 0.68828 0.85691
vt 0.67791 0.84824
vt 0.67759 0.88215
vt 0.66595 0.87530
vt 0.66974 0.89540
vt 0.65849 0.88866
vt 0.66189 0.90886
vt 0.65094 0.90197
vt 0.65459 0.92288
vt 0.64428 0.91540
vt 0.63867 0.92897
vt 0.14868 0.42024
vt 0.15051 0.43644
vt 0.13857 0.42755
vt 0.15851 0.42732
vt 0.13857 0.40909
vt 0.12882 0.41614
vt 0.12866 0.39740
vt 0.11902 0.40440
vt 0.11881 0.38579
vt 0.10934 0.39254
vt 0.10953 0.37467
vt 0.09940 0.38133
vt 0.09975 0.36430
vt 0.08910 0.37092
vt 0.08886 0.35579
vt 0.80377 0.08374
vt 0.80821 0.07249
vt 0.81607 0.08223
vt 0.82024 0.07040
vt 0.33843 0.19341
vt 0.34791 0.18494
vt 0.35197 0.19944
vt 0.33529 0.18142
vt 0.36400 0.18892
vt 0.35428 0.16225
vt 0.35906 0.17485
vt 0.34310 0.17235
vt 0.37550 0.17852
vt 0.36601 0.15240
vt 0.37071 0.16481
vt 0.38694 0.16823
vt 0.37776 0.14271
vt 0.38236 0.15477
vt 0.39841 0.15797
vt 0.38908 0.13368
vt 0.39386 0.14502
vt 0.40953 0.14811
vt 0.39987 0.12436
vt 0.40501 0.13532
vt 0.42070 0.13736
vt 0.40932 0.11448
vt 0.41495 0.12480
vt 0.43017 0.12476
vt 0.42191 0.11461
vt 0.09259 0.67058
vt 0.10969 0.66605
vt 0.10216 0.68147
vt 0.12061 0.67777
vt 0.11284 0.69293
vt 0.13094 0.68935
vt 0.12319 0.70434
vt 0.14111 0.70090
vt 0.13358 0.71584
vt 0.15127 0.71246
vt 0.14494 0.72797
vt 0.16086 0.72382
vt 0.15663 0.73982
vt 0.17107 0.73546
vt 0.16963 0.75039
vt 0.18235 0.74609
vt 0.20831 0.82645
vt 0.22287 0.82867
vt 0.21225 0.84241
vt 0.22729 0.84648
vt 0.23770 0.83373
vt 0.24177 0.85169
vt 0.25220 0.83893
vt 0.25660 0.85663
vt 0.26681 0.84410
vt 0.27232 0.86113
vt 0.28258 0.84935
vt 0.28848 0.86523
vt 0.29841 0.85448
vt 0.30486 0.86875
vt 0.31431 0.85922
vt 0.43367 0.09770
vt 0.44828 0.09383
vt 0.44253 0.10451
vt 0.43376 0.10678
vt 0.43864 0.11098
vt 0.42502 0.10655
vt 0.43166 0.11338
vt 0.58011 0.12503
vt 0.57254 0.13074
vt 0.56751 0.11979
vt 0.56312 0.13391
vt 0.57801 0.13341
vt 0.57441 0.13995
vt 0.56684 0.14344
vt 0.21809 0.06283
vt 0.21418 0.07611
vt 0.21099 0.06778
vt 0.20388 0.07013
vt 0.94844 0.20025
vt 0.93529 0.19911
vt 0.94256 0.18995
vt 0.93301 0.18961

# No. faces 144:

usemtl ObeliskSet_Base01

f 1/1/145 2/2/146 3/3/147
f 4/4/148 2/2/146 1/1/145
f 5/7/149 1/8/145 6/9/150
f 1/12/145 3/13/147 6/14/150
f 1/8/145 7/10/151 4/11/148
f 7/10/151 1/8/145 5/7/149
f 2/17/146 8/18/152 9/19/154
f 3/3/147 2/2/146 9/5/154
f 8/18/152 2/17/146 10/20/155
f 2/2/146 4/4/148 10/6/155
f 11/15/156 3/13/147 9/16/154
f 3/13/147 11/15/156 6/14/150
f 6/21/150 11/22/156 12/23/157
f 6/36/150 12/37/157 13/38/158
f 5/39/149 6/36/150 13/38/158
f 13/56/158 14/57/159 5/58/149
f 14/57/159 7/59/151 5/58/149
f 15/69/160 7/70/151 14/71/159
f 16/72/161 7/70/151 15/69/160
f 7/84/151 16/85/161 4/86/148
f 4/86/148 16/85/161 10/87/155
f 10/88/155 17/89/162 8/90/153
f 17/89/162 10/88/155 16/91/161
f 9/113/154 8/114/152 18/115/163
f 8/114/152 19/116/165 18/115/163
f 8/90/153 17/89/162 19/92/166
f 9/129/154 18/130/164 11/131/156
f 18/130/164 20/132/167 11/131/156
f 11/22/156 20/24/167 12/23/157
f 12/23/157 20/24/167 21/25/168
f 12/37/157 21/40/168 22/41/169
f 13/38/158 12/37/157 22/41/169
f 22/60/169 23/61/170 13/56/158
f 23/61/170 14/57/159 13/56/158
f 24/73/171 14/71/159 23/74/170
f 15/69/160 14/71/159 24/73/171
f 24/93/171 25/94/172 15/95/160
f 25/94/172 17/89/162 15/95/160
f 15/95/160 17/89/162 16/91/161
f 17/89/162 25/94/172 19/92/166
f 18/115/163 19/116/165 26/117/173
f 19/116/165 27/118/175 26/117/173
f 19/92/166 25/94/172 27/96/176
f 18/130/164 26/133/174 20/132/167
f 26/133/174 28/134/177 20/132/167
f 20/24/167 28/26/177 21/25/168
f 21/25/168 28/26/177 29/27/178
f 21/40/168 29/42/179 30/43/180
f 22/41/169 21/40/168 30/43/180
f 30/62/180 31/63/181 22/60/169
f 31/63/181 23/61/170 22/60/169
f 32/75/182 23/74/170 31/76/181
f 24/73/171 23/74/170 32/75/182
f 32/97/182 33/98/183 24/93/171
f 33/98/183 25/94/172 24/93/171
f 25/94/172 33/98/183 27/96/176
f 26/117/173 27/118/175 34/119/184
f 27/118/175 35/120/186 34/119/184
f 27/96/176 33/98/183 35/99/187
f 26/133/174 34/135/185 28/134/177
f 34/135/185 36/136/188 28/134/177
f 28/26/177 36/28/188 29/27/178
f 29/27/178 36/28/188 37/29/189
f 29/42/179 37/44/189 38/45/190
f 30/43/180 29/42/179 38/45/190
f 38/64/190 39/65/191 30/62/180
f 39/65/191 31/63/181 30/62/180
f 40/77/192 31/76/181 39/78/191
f 32/75/182 31/76/181 40/77/192
f 40/100/192 41/101/193 32/97/182
f 41/101/193 33/98/183 32/97/182
f 33/98/183 41/101/193 35/99/187
f 34/119/184 35/120/186 42/121/194
f 35/120/186 43/122/196 42/121/194
f 35/99/187 41/101/193 43/102/197
f 34/135/185 42/137/195 36/136/188
f 42/137/195 44/138/198 36/136/188
f 36/28/188 44/30/198 37/29/189
f 37/29/189 44/30/198 45/31/199
f 37/44/189 45/46/199 46/47/200
f 38/45/190 37/44/189 46/47/200
f 46/66/200 47/67/201 38/64/190
f 47/67/201 39/65/191 38/64/190
f 48/79/202 39/78/191 47/80/201
f 40/77/192 39/78/191 48/79/202
f 48/103/202 49/104/203 40/100/192
f 49/104/203 41/101/193 40/100/192
f 41/101/193 49/104/203 43/102/197
f 42/121/194 43/122/196 50/123/204
f 43/122/196 51/124/206 50/123/204
f 43/102/197 49/104/203 51/105/207
f 42/137/195 50/139/205 44/138/198
f 50/139/205 52/140/208 44/138/198
f 44/30/198 52/32/208 45/31/199
f 45/31/199 52/32/208 53/33/209
f 45/46/199 53/48/209 54/49/210
f 46/47/200 45/46/199 54/49/210
f 54/49/210 55/50/211 46/47/200
f 55/68/211 47/67/201 46/66/200
f 56/81/212 47/80/201 55/82/211
f 48/79/202 47/80/201 56/81/212
f 56/106/212 57/107/213 48/103/202
f 57/107/213 49/104/203 48/103/202
f 49/104/203 57/107/213 51/105/207
f 50/123/204 51/124/206 58/125/214
f 51/124/206 59/126/216 58/125/214
f 51/105/207 57/107/213 59/108/217
f 50/139/205 58/141/215 52/140/208
f 58/141/215 60/142/218 52/140/208
f 52/32/208 60/34/218 53/33/209
f 53/33/209 60/34/218 74/35/234
f 53/48/209 74/51/234 61/52/219
f 54/49/210 53/48/209 61/52/219
f 61/52/219 62/53/220 54/49/210
f 62/53/220 55/50/211 54/49/210
f 63/144/221 55/145/211 62/146/220
f 56/81/212 55/82/211 63/83/221
f 63/109/221 64/110/222 56/106/212
f 64/110/222 57/107/213 56/106/212
f 57/107/213 64/110/222 59/108/217
f 58/125/214 59/126/216 65/127/223
f 59/126/216 66/128/225 65/127/223
f 59/108/217 64/110/222 66/111/226
f 58/141/215 65/143/224 60/142/218
f 65/151/224 73/152/233 60/153/218
f 60/153/218 73/152/233 74/154/234
f 74/51/234 67/54/227 61/52/219
f 67/54/227 62/53/220 61/52/219
f 68/147/228 62/146/220 67/148/227
f 63/144/221 62/146/220 68/147/228
f 68/147/228 69/149/229 63/144/221
f 69/112/229 64/110/222 63/109/221
f 64/110/222 69/112/229 66/111/226
f 65/158/224 66/159/226 70/160/230
f 66/159/226 71/161/231 70/160/230
f 66/162/226 69/163/229 71/164/231
f 65/151/224 70/155/230 73/152/233
f 67/148/227 72/150/232 68/147/228
f 72/150/232 69/149/229 68/147/228
f 69/163/229 72/165/232 71/164/231
f 70/155/230 71/156/231 73/152/233
f 74/51/234 72/55/232 67/54/227
f 72/157/232 74/154/234 71/156/231
f 73/152/233 71/156/231 74/154/234

# End of Object "ObeliskSet01F"
